<svg width="13" height="9" viewBox="0 0 13 9" fill="none" xmlns="http://www.w3.org/2000/svg">
<g clip-path="url(#clip0_4_584)">
<g clip-path="url(#clip1_4_584)">
<g clip-path="url(#clip2_4_584)">
<path d="M12.0957 2.20806L5.7722 8.56706C5.59153 8.74874 5.33343 8.85258 5.04952 8.85258C4.7656 8.85258 4.53331 8.74874 4.32683 8.56706L0.687582 4.90741C0.300428 4.51808 0.300428 3.86919 0.687582 3.47986C1.07474 3.09053 1.71999 3.09053 2.10715 3.47986L5.0237 6.41279L10.6503 0.75458C11.0375 0.365254 11.6827 0.365254 12.0699 0.75458C12.4829 1.16986 12.4829 1.79278 12.0957 2.20806Z" fill="#01B289"/>
</g>
</g>
</g>
<defs>
<clipPath id="clip0_4_584">
<rect width="12" height="8.39" fill="white" transform="translate(0.390137 0.462585)"/>
</clipPath>
<clipPath id="clip1_4_584">
<rect width="12" height="8.39" fill="white" transform="translate(0.390137 0.462585)"/>
</clipPath>
<clipPath id="clip2_4_584">
<rect width="11.9857" height="8.39" fill="white" transform="translate(0.397217 0.462585)"/>
</clipPath>
</defs>
</svg>
